<svg width="1920" height="825" viewBox="0 0 1920 825" fill="none" xmlns="http://www.w3.org/2000/svg">
<g clip-path="url(#clip0_6_28)">
<path d="M1920 0H-6.10352e-05V825H1920V0Z" fill="url(#paint0_linear_6_28)"/>
<g opacity="0.293">
<path d="M-289.555 938.97C-289.555 938.97 -188.814 946.369 -67.6219 950.69C-19.8359 952.394 27.6781 954.163 74.8451 954.145C126.345 954.128 177.679 951.331 220.64 949.144C273.712 946.441 317.35 940.376 339.476 930.502C364.905 919.156 388.131 917.874 410.517 922.549C473.078 935.598 526.412 996.475 589.634 997.28C669.794 998.399 700.101 899.461 816.239 918.364C824.962 919.816 833.433 921.717 841.549 924.042C978.778 962.941 1171.43 1012.7 1204.04 1004.76C1236.82 996.824 1331.95 855.915 1392.7 863.526C1450.4 870.728 1511.31 976.265 1696.71 978.983C1707.05 979.126 1717.4 978.945 1727.71 978.44C1935.54 968.539 1906.6 920.262 1931.67 912.65C1944.07 908.881 2024.89 889.31 2108.87 868.776C2200.14 846.419 2300.44 824.432 2321.46 822.644" stroke="#9499A8" stroke-miterlimit="10"/>
<path d="M-282.461 919.976C-282.461 919.976 -181.861 927.929 -61.1791 932.653C-12.5721 934.556 34.106 936.749 80.921 936.717C131.993 936.687 183.567 933.021 226.183 931.132C278.615 928.81 322.457 922.782 345.023 912.993C370.573 901.912 393.753 900.574 416.151 905.206C478.842 918.14 531.551 979.82 594.058 980.422C673.203 981.334 703.631 883.745 818.78 901.905C827.42 903.3 835.818 905.141 843.868 907.404C979.722 945.283 1170.42 994.128 1203.69 986.318C1237.24 978.507 1331.53 840.01 1392.13 847.332C1449.73 854.253 1509.47 956.772 1695.48 959.629C1705.78 959.776 1716.09 959.605 1726.37 959.118C1933.87 949.591 1903.94 902.346 1929.55 895.423C1942.5 891.921 2023.31 873.222 2106.55 853.122C2196.95 831.229 2298.1 809.943 2319.18 808.116" stroke="#9499A8" stroke-miterlimit="10"/>
<path d="M-275.365 900.98C-275.365 900.98 -174.918 909.504 -54.7371 914.616C-5.30906 916.717 40.535 919.335 86.989 919.289C137.628 919.245 189.438 914.711 231.717 913.123C283.504 911.179 327.548 905.188 350.565 895.485C376.224 884.668 399.365 883.278 421.776 887.864C484.6 900.685 536.69 963.084 598.476 963.565C676.609 964.171 707.156 868.031 821.31 885.449C829.867 886.787 838.191 888.567 846.175 890.768C980.657 927.63 1169.39 975.562 1203.34 967.88C1237.64 960.192 1331.1 824.106 1391.55 831.14C1449.05 837.781 1507.61 937.281 1694.24 940.277C1704.51 940.43 1714.78 940.271 1725.01 939.8C1932.2 930.644 1901.32 884.446 1927.43 878.197C1940.94 874.961 2021.72 857.142 2104.22 837.472C2193.75 816.042 2295.75 795.459 2316.87 793.591" stroke="#9499A8" stroke-miterlimit="10"/>
<path d="M-268.269 881.991C-268.269 881.991 -167.969 891.095 -48.296 896.584C1.95298 898.889 46.964 901.925 93.059 901.864C143.265 901.807 195.309 896.402 237.259 895.115C288.4 893.548 332.64 887.597 356.11 877.979C381.869 867.425 404.984 865.981 427.41 870.525C490.363 883.23 541.831 946.411 602.899 946.709C680.018 947.085 710.685 852.319 823.849 868.995C832.327 870.27 840.578 871.991 848.493 874.136C981.751 909.808 1168.35 956.961 1202.99 949.443C1238.02 941.841 1330.68 808.204 1390.98 814.951C1448.38 821.31 1505.78 917.792 1693.01 920.928C1703.24 921.087 1713.47 920.939 1723.66 920.485C1930.53 911.703 1898.75 866.562 1925.31 860.976C1939.41 858.01 2020.13 841.064 2101.89 821.825C2190.55 800.861 2293.41 780.979 2314.58 779.07" stroke="#9499A8" stroke-miterlimit="10"/>
<path d="M-261.175 862.997C-261.175 862.997 -161.02 872.69 -41.8582 878.548C9.21384 881.058 53.389 884.515 99.127 884.441C148.9 884.368 201.176 878.094 242.79 877.109C293.277 875.917 337.717 870.005 361.647 860.473C387.497 850.176 410.589 848.684 433.029 853.183C496.113 865.775 546.957 929.737 607.311 929.853C683.411 930 714.204 836.604 826.374 852.54C834.771 853.756 842.947 855.417 850.797 857.502C982.712 892.123 1167.32 938.393 1202.64 931.007C1238.42 923.522 1330.25 792.304 1390.39 798.762C1447.7 804.838 1503.92 898.303 1691.77 901.579C1701.96 901.742 1712.16 901.604 1722.32 901.166C1928.86 892.755 1896.22 848.69 1923.2 843.75C1937.91 841.054 2018.55 824.979 2099.57 806.173C2187.35 785.671 2291.07 766.492 2312.29 764.542" stroke="#9499A8" stroke-miterlimit="10"/>
<path d="M-254.08 844.003C-254.08 844.003 -154.07 854.299 -35.4131 860.511C16.4869 863.229 59.8209 867.102 105.203 867.014C154.542 866.927 207.042 859.782 248.331 859.099C298.164 858.277 342.797 852.411 367.193 842.965C393.129 832.925 416.209 831.388 438.664 835.844C501.877 848.322 552.098 913.063 611.734 912.997C686.822 912.914 717.734 820.891 828.915 836.086C837.229 837.243 845.332 838.844 853.115 840.868C983.674 874.435 1166.3 919.822 1202.29 912.566C1238.82 905.202 1329.82 776.401 1389.82 782.571C1447.03 788.369 1502.07 878.811 1690.54 882.228C1700.69 882.39 1710.85 882.263 1720.97 881.848C1927.16 873.572 1893.74 830.839 1921.08 826.526C1936.43 824.105 2016.97 808.897 2097.25 790.522C2184.16 770.485 2288.73 752.008 2310 750.018" stroke="#9499A8" stroke-miterlimit="10"/>
<path d="M-246.982 824.383C-246.982 824.383 -147.12 835.291 -28.9711 841.849C23.7529 844.776 66.2508 849.06 111.276 848.961C160.176 848.86 212.902 840.841 253.868 840.464C303.042 840.01 347.868 834.189 372.739 824.831C398.753 815.043 421.824 813.463 444.293 817.875C507.636 830.239 557.232 895.761 616.156 895.513C690.224 895.201 721.262 804.553 831.447 819.002C839.679 820.102 847.709 821.644 855.426 823.607C984.637 856.122 1165.28 900.625 1201.94 893.502C1239.23 886.256 1329.4 759.871 1389.24 765.754C1446.35 771.271 1500.22 858.697 1689.3 862.25C1699.15 862.422 1709.26 862.306 1719.62 861.902C1925.49 853.969 1891.27 812.379 1918.96 808.675C1934.96 806.534 2015.38 792.187 2094.91 774.245C2180.96 754.672 2286.38 736.896 2307.7 734.865" stroke="#9499A8" stroke-miterlimit="10"/>
<path d="M-239.889 804.59C-239.889 804.59 -140.169 816.122 -22.5331 823.015C31.0199 826.152 72.6788 830.85 117.347 830.737C165.819 830.623 218.756 821.729 259.406 821.657C307.915 821.57 352.935 815.797 378.282 806.526C404.366 796.987 427.44 795.369 449.92 799.737C513.396 811.986 562.367 878.289 620.576 877.858C693.631 877.318 724.791 788.038 833.984 801.749C842.132 802.791 850.087 804.273 857.738 806.174C985.599 837.638 1164.26 881.257 1201.59 874.264C1239.64 867.138 1328.97 743.171 1388.66 748.764C1445.68 754 1498.38 838.408 1688.07 842.101C1697.9 842.277 1707.97 842.172 1718.28 841.786C1923.82 834.195 1888.83 793.766 1916.85 790.651C1933.51 788.798 2013.8 775.305 2092.59 757.795C2177.77 738.686 2284.04 721.613 2305.41 719.541" stroke="#9499A8" stroke-miterlimit="10"/>
<path d="M-232.792 766.711C-232.792 766.711 -133.216 778.874 -16.092 786.093C38.287 789.443 79.1077 794.553 123.418 794.423C171.456 794.294 224.606 784.527 264.942 784.761C312.784 785.039 357.997 779.31 383.826 770.132C409.97 760.839 433.055 759.185 455.551 763.509C519.151 775.644 567.501 842.729 624.995 842.115C697.031 841.346 728.317 753.438 836.515 766.408C844.583 767.391 852.466 768.812 860.054 770.653C986.554 801.066 1163.24 843.801 1201.24 836.939C1240.04 829.934 1328.55 708.38 1388.08 713.687C1445 718.643 1496.53 800.033 1686.83 803.863C1696.64 804.045 1706.67 803.95 1716.93 803.58C1922.15 796.333 1886.42 757.082 1914.73 754.539C1932.07 752.981 2012.22 740.335 2090.27 723.258C2174.57 704.612 2281.7 688.241 2303.12 686.129" stroke="#9499A8" stroke-miterlimit="10"/>
<path d="M-225.696 745.215C-225.696 745.215 -126.266 758.018 -9.65002 765.555C45.558 769.123 85.5381 774.64 129.491 774.495C177.091 774.352 230.452 763.707 270.484 764.251C317.65 764.889 363.051 759.213 389.37 750.122C415.57 741.073 438.67 739.385 461.18 743.666C524.916 755.688 572.637 823.554 629.415 822.756C700.435 821.759 731.844 735.222 839.053 747.45C847.036 748.375 854.843 749.737 862.364 751.516C987.514 780.877 1162.22 822.729 1200.89 815.995C1240.45 809.109 1328.12 689.974 1387.51 694.992C1444.32 699.665 1494.68 778.036 1685.6 782.007C1695.38 782.193 1705.38 782.11 1715.58 781.758C1920.48 774.857 1884.01 736.8 1912.61 734.81C1930.64 733.556 2010.69 721.836 2087.94 705.104C2171.44 687.015 2279.35 671.251 2300.82 669.099" stroke="#9499A8" stroke-miterlimit="10"/>
<path d="M-218.602 723.726C-147.496 732.921 -75.6019 740.03 -3.20691 745.024C52.8261 748.81 91.9671 754.733 135.563 754.574C182.734 754.416 236.294 742.896 276.022 743.747C322.513 744.744 368.101 739.119 394.916 730.12C421.166 721.309 444.285 719.592 466.816 723.829C530.68 735.737 577.777 804.386 633.842 803.405C703.842 802.18 735.377 717.013 841.591 728.499C849.491 729.367 857.224 730.669 864.68 732.387C988.48 760.698 1161.2 801.667 1200.54 795.065C1240.86 788.298 1327.68 671.649 1386.94 676.309C1443.64 680.768 1492.84 756.054 1684.37 760.163C1694.13 760.352 1704.09 760.28 1714.24 759.947C1918.81 753.391 1881.63 716.548 1910.5 715.091C1929.22 714.147 2009.12 703.265 2085.62 686.959C2168.26 669.342 2277.02 654.272 2298.53 652.08" stroke="#9499A8" stroke-miterlimit="10"/>
<path d="M-211.506 702.247C-140.689 711.868 -69.0035 719.298 3.23291 724.504C60.0939 728.511 98.3941 734.838 141.633 734.664C188.371 734.494 242.133 722.091 281.559 723.254C327.371 724.605 373.147 719.034 400.459 710.129C426.754 701.555 449.901 699.812 472.439 704.004C536.439 715.798 582.903 785.229 638.256 784.062C707.238 782.61 738.901 698.812 844.121 709.558C851.938 710.368 859.597 711.61 866.987 713.267C989.425 740.527 1160.18 780.612 1200.19 774.14C1241.26 767.497 1327.25 653.264 1386.35 657.632C1442.96 661.815 1490.98 734.078 1683.13 738.327C1692.87 738.522 1702.78 738.45 1712.89 738.143C1917.14 731.935 1879.24 696.317 1908.38 695.382C1927.79 694.758 2007.53 684.705 2083.29 668.823C2165.06 651.679 2274.67 637.304 2296.23 635.071" stroke="#9499A8" stroke-miterlimit="10"/>
<path d="M-204.409 680.774C-133.885 690.822 -62.407 698.573 9.67499 703.989C67.365 708.22 104.823 714.943 147.704 714.757C194.004 714.572 247.963 701.289 287.096 702.765C332.223 704.468 378.185 698.952 406.002 690.141C432.332 681.8 455.515 680.034 478.065 684.183C542.192 695.863 588.036 766.077 642.674 764.728C710.636 763.051 742.424 680.621 846.653 690.624C854.387 691.376 861.973 692.559 869.299 694.155C990.376 720.365 1159.16 759.567 1199.83 753.225C1241.66 746.701 1326.82 634.888 1385.77 638.965C1442.28 642.87 1489.13 712.111 1681.89 716.498C1691.61 716.699 1701.48 716.637 1711.54 716.347C1915.47 710.486 1876.86 676.111 1906.26 675.68C1926.38 675.385 2005.95 666.152 2080.96 650.697C2161.87 634.024 2272.32 620.342 2293.94 618.07" stroke="#9499A8" stroke-miterlimit="10"/>
<path d="M-197.315 659.31C-197.315 659.31 -98.466 674.754 16.119 683.482C74.638 687.939 111.255 695.061 153.778 694.86C199.649 694.661 253.791 680.495 292.635 682.286C337.073 684.336 383.223 678.876 411.545 670.163C437.908 662.053 461.132 660.266 483.697 664.371C547.952 675.936 593.17 746.934 647.097 745.4C714.041 743.496 745.954 662.436 849.192 671.7C856.842 672.394 864.353 673.516 871.614 675.05C991.331 700.211 1158.14 738.529 1199.49 732.316C1242.07 725.914 1326.4 616.52 1385.2 620.302C1441.61 623.933 1487.29 690.151 1680.67 694.677C1690.35 694.882 1700.19 694.829 1710.2 694.559C1913.8 689.048 1874.49 655.923 1904.15 655.984C1924.97 656.027 2004.37 647.606 2078.64 632.575C2158.68 616.372 2269.98 603.385 2291.65 601.071" stroke="#9499A8" stroke-miterlimit="10"/>
<path d="M-194.699 637.226C-194.699 637.226 -95.9989 653.351 18.0781 662.355C77.4261 667.04 113.202 674.558 155.369 674.343C200.808 674.13 255.135 659.076 293.694 661.186C337.44 663.58 383.773 658.177 412.609 649.564C439.001 641.681 462.263 639.879 484.844 643.939C549.233 655.391 593.82 727.172 647.036 725.452C712.957 723.324 745 643.633 847.242 652.15C854.809 652.786 862.246 653.849 869.442 655.322C987.796 679.433 1152.64 716.87 1194.65 710.783C1238 704.504 1321.49 597.527 1380.14 601.019C1436.45 604.369 1480.94 667.788 1674.95 672.232C1684.61 672.454 1694.41 672.403 1704.37 672.147C1907.65 666.987 1867.63 635.127 1897.55 635.666C1919.07 636.055 1998.31 628.436 2071.83 613.829C2151 598.099 2263.16 585.806 2284.87 583.453" stroke="#9499A8" stroke-miterlimit="10"/>
<path d="M-210.332 612.275C-210.332 612.275 -111.778 629.081 1.79395 638.362C61.9699 643.277 96.9041 651.187 138.715 650.959C183.715 650.732 238.228 634.79 276.505 637.219C319.557 639.952 366.073 634.612 395.426 626.099C421.84 618.438 445.154 616.623 467.75 620.639C532.264 631.977 576.225 704.541 628.73 702.637C693.63 700.283 725.799 621.959 827.052 629.738C834.535 630.317 841.898 631.32 849.029 632.732C966.019 655.794 1128.9 692.346 1171.58 686.388C1215.68 680.231 1298.34 575.672 1356.84 578.871C1413.05 581.944 1456.36 642.35 1650.99 646.924C1660.63 647.151 1670.39 647.105 1680.3 646.871C1883.26 642.062 1842.53 611.475 1872.7 612.484C1894.93 613.226 1974.01 606.402 2046.78 592.222C2125.09 576.962 2238.09 565.365 2259.85 562.969" stroke="#9499A8" stroke-miterlimit="10"/>
<path d="M-223.352 587.288C-223.352 587.288 -124.947 604.788 -11.881 614.333C49.119 619.483 83.2188 627.782 124.671 627.54C169.24 627.299 223.929 610.466 261.927 613.218C304.281 616.284 350.979 611.009 380.855 602.601C407.285 595.163 430.655 593.335 453.262 597.308C517.91 608.532 561.241 681.88 613.034 679.791C676.913 677.213 709.212 600.256 809.471 607.293C816.871 607.815 824.16 608.757 831.229 610.106C946.848 632.121 1107.76 667.79 1151.11 661.959C1195.97 655.925 1277.8 553.781 1336.14 556.69C1392.26 559.487 1434.4 616.876 1629.64 621.584C1639.26 621.815 1648.98 621.78 1658.83 621.563C1861.47 617.107 1820.03 587.803 1850.47 589.269C1873.4 590.374 1952.31 584.336 2024.34 570.581C2101.78 555.791 2215.64 544.89 2237.44 542.455" stroke="#9499A8" stroke-miterlimit="10"/>
<path d="M-233.817 562.437C-233.817 562.437 -135.564 580.634 -23.004 590.438C38.829 595.824 72.0841 604.512 113.18 604.255C157.317 603.999 212.18 586.272 249.902 589.351C291.553 592.75 338.435 587.535 368.836 579.233C395.28 572.012 418.707 570.179 441.328 574.107C506.107 585.217 548.808 659.349 599.891 657.074C662.748 654.273 695.176 578.682 794.446 584.977C801.761 585.443 808.975 586.326 815.978 587.613C930.231 608.58 1089.18 643.364 1133.2 637.661C1178.82 631.751 1259.81 532.023 1318 534.64C1374.02 537.158 1414.98 591.537 1610.84 596.373C1620.43 596.61 1630.12 596.585 1639.92 596.385C1842.24 592.283 1800.09 564.269 1830.79 566.185C1854.42 567.661 1933.16 562.4 2004.44 549.071C2081.02 534.753 2195.72 524.546 2217.59 522.071" stroke="#9499A8" stroke-miterlimit="10"/>
<path d="M-241.807 537.885C-241.807 537.885 -143.707 556.787 -31.646 566.842C31.015 572.467 63.4287 581.539 104.167 581.268C147.867 580.998 202.902 562.374 240.355 565.781C281.304 569.507 328.365 564.362 359.293 556.166C385.748 549.157 409.235 547.32 431.874 551.205C496.781 562.201 538.853 637.119 589.226 634.656C651.062 631.632 683.619 557.406 781.893 562.96C789.125 563.368 796.266 564.191 803.206 565.417C916.085 585.338 1073.08 619.238 1117.76 613.661C1164.14 607.874 1244.3 510.561 1302.34 512.887C1358.27 515.129 1398.05 566.492 1594.52 571.46C1604.09 571.702 1613.74 571.687 1623.49 571.505C1825.49 567.758 1782.62 541.04 1813.59 543.4C1837.91 545.251 1916.49 540.762 1987.03 527.86C2062.74 514.012 2178.3 504.499 2200.21 501.983" stroke="#9499A8" stroke-miterlimit="10"/>
<path d="M-247.383 513.8C-247.383 513.8 -149.434 533.412 -37.8771 543.718C25.6099 549.585 57.186 559.039 97.566 558.754C140.837 558.47 196.037 538.946 233.22 542.685C273.464 546.731 320.703 541.653 352.166 533.571C378.625 526.773 402.178 524.936 424.83 528.777C489.868 539.659 531.31 615.365 580.976 612.713C641.786 609.467 674.476 536.605 771.756 541.417C778.904 541.77 785.97 542.533 792.846 543.695C904.352 562.571 1059.39 595.585 1104.75 590.136C1151.88 584.473 1231.21 489.575 1289.09 491.61C1344.92 493.573 1383.53 541.921 1580.62 547.022C1590.16 547.27 1599.77 547.263 1609.47 547.101C1811.15 543.71 1767.55 518.294 1798.8 521.088C1823.81 523.323 1902.24 519.598 1972.04 507.12C2046.88 493.743 2163.29 484.926 2185.25 482.371" stroke="#9499A8" stroke-miterlimit="10"/>
<path d="M-250.614 490.35C-250.614 490.35 -152.814 510.677 -41.7601 521.227C22.5529 527.336 53.2909 537.17 93.3129 536.872C136.15 536.575 191.513 516.148 228.433 520.22C267.967 524.582 315.385 519.575 347.384 511.607C373.846 505.02 397.469 503.184 420.133 506.98C485.302 517.747 526.115 594.238 575.068 591.4C634.858 587.933 667.675 516.435 763.968 520.506C771.031 520.802 778.023 521.504 784.836 522.604C894.966 540.432 1048.05 572.564 1094.07 567.24C1141.96 561.701 1220.46 469.218 1278.19 470.963C1333.92 472.648 1371.36 517.98 1569.05 523.214C1578.58 523.467 1588.15 523.47 1597.8 523.328C1799.16 520.296 1754.83 496.187 1786.36 499.409C1812.05 502.034 1890.33 499.068 1959.39 487.016C2033.36 474.109 2150.62 465.988 2172.63 463.391" stroke="#9499A8" stroke-miterlimit="10"/>
<path d="M-251.564 467.702C-251.564 467.702 -153.924 488.748 -43.3641 499.536C21.7749 505.892 51.6741 516.103 91.3361 515.791C133.741 515.478 189.265 494.143 225.926 498.555C264.749 503.229 312.341 498.294 344.882 490.443C371.344 484.061 395.037 482.23 417.717 485.982C483.017 496.636 523.196 573.914 571.442 570.887C630.208 567.201 663.156 497.066 758.451 500.395C765.43 500.634 772.349 501.277 779.098 502.314C887.85 519.102 1038.98 550.342 1085.67 545.147C1134.32 539.732 1211.98 449.661 1269.57 451.117C1325.2 452.522 1361.46 494.84 1559.78 500.208C1569.28 500.466 1578.81 500.48 1588.41 500.352C1789.45 497.678 1744.37 474.88 1776.2 478.526C1802.57 481.547 1880.7 479.332 1949.02 467.707C2022.12 455.269 2140.23 447.845 2162.29 445.208" stroke="#9499A8" stroke-miterlimit="10"/>
<path d="M-250.306 446.021C-250.306 446.021 -152.824 467.793 -42.761 478.813C23.201 485.419 52.264 496.005 91.573 495.677C133.545 495.35 189.228 473.104 225.627 477.86C263.74 482.84 311.506 477.977 344.588 470.251C371.047 464.071 394.817 462.245 417.511 465.956C482.94 476.495 522.489 554.561 570.026 551.344C627.765 547.438 660.845 478.667 755.151 481.253C762.046 481.436 768.89 482.02 775.576 482.994C882.949 498.738 1032.13 529.092 1079.48 524.022C1128.89 518.732 1205.73 431.075 1263.15 432.24C1318.69 433.366 1353.77 472.667 1552.7 478.171C1562.18 478.433 1571.68 478.455 1581.22 478.347C1781.95 476.034 1736.12 454.551 1768.24 458.615C1795.29 462.036 1873.28 460.567 1940.85 449.371C2013.08 437.402 2132.05 430.675 2154.15 427.997" stroke="#9499A8" stroke-miterlimit="10"/>
<path d="M-246.904 425.475C-246.904 425.475 -149.58 447.976 -40.0142 459.225C26.7738 466.081 55.0017 477.04 93.9507 476.699C135.489 476.358 191.331 453.196 227.472 458.299C264.872 463.58 312.81 458.795 346.438 451.19C372.892 445.209 396.738 443.396 419.444 447.061C485.005 457.487 523.923 536.341 570.753 532.935C627.469 528.811 660.679 461.398 753.991 463.245C760.802 463.372 767.572 463.895 774.196 464.806C880.185 479.512 1027.42 508.974 1075.44 504.029C1125.61 498.862 1201.61 413.621 1258.88 414.496C1314.32 415.343 1348.23 451.629 1547.77 457.267C1557.23 457.535 1566.69 457.568 1576.18 457.475C1776.58 455.523 1730.01 435.356 1762.43 439.837C1790.14 443.665 1868 442.937 1934.83 432.167C2006.19 420.667 2126.01 414.636 2148.17 411.918" stroke="#9499A8" stroke-miterlimit="10"/>
<path d="M-241.424 406.23C-241.424 406.23 -144.258 429.464 -35.1891 440.937C32.4219 448.049 59.8111 459.374 98.4061 459.02C139.506 458.665 195.506 434.584 231.393 440.038C268.079 445.613 316.187 440.907 350.367 433.429C376.811 427.645 400.737 425.846 423.459 429.467C489.147 439.778 527.434 519.421 573.559 515.828C629.249 511.486 662.593 445.433 754.912 446.538C761.638 446.61 768.334 447.073 774.894 447.922C879.494 461.584 1024.79 490.16 1073.48 485.339C1124.4 480.298 1199.57 397.467 1256.69 398.053C1312.04 398.62 1344.77 431.893 1544.93 437.663C1554.36 437.936 1563.78 437.98 1573.23 437.906C1773.31 436.316 1725.97 417.465 1758.71 422.359C1787.08 426.598 1864.81 426.606 1930.89 416.263C2001.39 405.233 2122.06 399.898 2144.26 397.141" stroke="#9499A8" stroke-miterlimit="10"/>
<path d="M-233.937 388.826C-233.937 388.826 -136.937 412.8 -28.3541 424.491C40.0789 431.861 66.6327 443.552 104.871 443.184C145.543 442.815 201.694 417.81 237.325 423.62C273.298 429.484 321.572 424.859 356.304 417.512C382.738 411.922 406.732 410.165 429.482 413.716C495.263 423.988 532.951 504.347 578.363 500.56C633.026 496.001 666.504 431.309 757.832 431.673C764.473 431.689 771.094 432.092 777.59 432.876C880.808 445.501 1024.15 473.185 1073.51 468.491C1125.19 463.576 1199.53 383.157 1256.5 383.453C1311.75 383.741 1343.3 413.995 1544.08 419.905C1553.48 420.182 1562.87 420.236 1572.26 420.179C1772.03 418.954 1723.91 401.426 1756.97 406.726C1786 411.382 1863.6 412.12 1928.95 402.204C1998.57 391.643 2120.1 387.005 2142.35 384.205" stroke="#9499A8" stroke-miterlimit="10"/>
<path d="M-224.51 373.51C-224.51 373.51 -127.667 398.227 -19.5819 410.133C49.6721 417.762 75.397 429.818 113.275 429.438C153.51 429.056 209.819 403.121 245.192 409.29C280.455 415.439 328.892 410.896 364.178 403.686C390.6 398.285 414.678 396.547 437.441 400.056C503.353 410.212 540.41 491.361 585.121 487.382C638.759 482.608 672.37 419.274 762.704 418.896C769.261 418.856 775.807 419.199 782.24 419.918C884.07 431.505 1025.47 458.301 1075.5 453.729C1127.94 448.94 1201.44 370.931 1258.26 370.938C1313.41 370.947 1343.79 398.183 1545.18 404.229C1554.56 404.513 1563.91 404.576 1573.25 404.536C1772.7 403.676 1723.81 387.471 1757.19 393.18C1786.86 398.253 1864.36 399.718 1928.96 390.233C1997.71 380.139 2120.09 376.199 2142.39 373.36" stroke="#9499A8" stroke-miterlimit="10"/>
<path d="M-213.206 360.105C-213.206 360.105 -116.528 385.568 -8.93201 397.686C61.142 405.578 86.0299 417.995 123.553 417.598C163.353 417.2 219.818 390.334 254.937 396.869C289.488 403.295 338.089 398.837 373.929 391.764C400.337 386.553 424.499 384.837 447.277 388.301C513.321 398.343 549.745 480.283 593.748 476.112C646.359 471.123 680.103 409.146 769.448 408.027C775.92 407.933 782.392 408.216 788.762 408.872C889.2 419.425 1028.66 445.324 1079.36 440.879C1132.56 436.215 1205.23 360.617 1261.89 360.336C1316.95 360.064 1346.16 384.283 1548.16 390.467C1557.52 390.751 1566.83 390.83 1576.12 390.808C1775.25 390.315 1725.58 375.432 1759.29 381.543C1789.6 387.04 1866.99 389.227 1930.85 380.169C1998.73 370.541 2121.96 367.3 2144.32 364.421" stroke="#9499A8" stroke-miterlimit="10"/>
<path d="M-200.095 349.941C-200.095 349.941 -103.584 376.154 3.52399 388.479C74.417 396.637 98.476 409.411 135.64 409.002C175.012 408.591 231.627 380.785 266.493 387.689C300.33 394.389 349.093 390.017 385.493 383.087C411.884 378.061 436.135 376.369 458.927 379.789C525.102 389.719 560.89 472.452 604.189 468.086C655.772 462.885 689.65 402.263 778 400.402C784.388 400.253 790.786 400.476 797.094 401.069C896.139 410.587 1033.66 435.59 1085.03 431.272C1138.99 426.733 1210.83 353.546 1267.33 352.977C1322.29 352.423 1350.32 373.625 1552.93 379.947C1562.27 380.238 1571.54 380.325 1580.78 380.319C1779.59 380.195 1729.13 366.636 1763.18 373.148C1794.13 379.069 1871.41 381.977 1934.53 373.347C2001.54 364.187 2125.63 361.645 2148.03 358.725" stroke="#9499A8" stroke-miterlimit="10"/>
<path d="M-179.318 337.777C-179.318 337.777 -82.9731 364.747 23.6489 377.274C95.3609 385.7 118.589 398.83 155.395 398.405C194.335 397.981 251.106 369.232 285.713 376.51C318.843 383.479 367.757 379.195 404.713 372.409C431.086 367.568 455.425 365.902 478.23 369.279C544.53 379.094 579.689 462.62 622.283 458.06C672.84 452.646 706.852 393.38 794.208 390.776C800.511 390.573 806.835 390.737 813.08 391.264C910.728 399.75 1046.32 423.858 1098.35 419.663C1153.07 415.252 1224.07 344.473 1280.43 343.616C1335.29 342.782 1362.15 360.965 1565.38 367.425C1574.69 367.721 1583.93 367.822 1593.11 367.831C1791.6 368.077 1740.35 355.838 1774.74 362.753C1806.33 369.103 1883.5 372.726 1945.88 364.527C2012.02 355.834 2136.97 353.99 2159.42 351.03" stroke="#9499A8" stroke-miterlimit="10"/>
<path d="M-151.703 319.02C-151.703 319.02 -55.5291 346.744 50.6099 359.473C123.137 368.171 145.537 381.653 181.986 381.214C220.492 380.775 277.424 351.078 311.77 358.737C344.195 365.966 393.257 361.772 430.779 355.137C457.137 350.476 481.579 348.815 504.379 352.172C570.851 361.8 605.335 446.193 647.223 441.437C696.751 435.816 730.899 377.901 817.263 374.556C823.481 374.298 829.731 374.402 835.912 374.865C932.164 382.321 1065.82 405.53 1118.52 401.459C1174 397.173 1244.17 328.805 1300.37 327.66C1355.14 326.545 1380.82 341.708 1584.67 348.31C1593.96 348.61 1603.15 348.718 1612.29 348.747C1810.46 349.365 1758.41 338.448 1793.15 345.762C1825.36 352.544 1902.44 356.882 1964.09 349.112C2029.35 340.886 2155.15 339.74 2177.65 336.74" stroke="#9499A8" stroke-miterlimit="10"/>
<path d="M-132.161 301.751C-132.161 301.751 -36.1612 330.237 69.4988 343.163C142.84 352.134 164.414 365.966 200.505 365.513C238.578 365.059 295.672 334.409 329.756 342.454C361.479 349.94 410.684 345.836 448.77 339.355C475.111 334.87 499.638 333.244 522.461 336.556C589.061 346.07 622.91 431.259 664.094 426.306C712.594 420.472 746.878 363.911 832.248 359.825C838.382 359.515 844.556 359.558 850.674 359.955C945.526 366.385 1077.25 388.692 1130.62 384.746C1186.85 380.587 1256.19 314.624 1312.24 313.194C1366.92 311.798 1391.42 323.942 1595.88 330.682C1605.14 330.987 1614.31 331.108 1623.39 331.153C1821.24 332.143 1768.38 322.548 1803.48 330.262C1836.31 337.476 1913.3 342.526 1974.21 335.184C2038.6 327.424 2165.25 326.979 2187.8 323.938" stroke="#9499A8" stroke-miterlimit="10"/>
<path d="M-119.409 285.588C-119.409 285.588 -23.5811 314.84 81.5909 327.959C155.745 337.209 176.491 351.386 212.227 350.919C249.867 350.452 307.127 318.839 340.946 327.277C371.967 335.014 421.316 331.003 459.966 324.68C486.286 320.373 510.904 318.778 533.74 322.048C600.472 331.448 633.687 417.433 674.166 412.282C721.641 406.241 756.055 351.03 840.435 346.203C846.483 345.839 852.581 345.823 858.635 346.155C952.084 351.558 1081.88 372.963 1135.92 369.14C1192.92 365.109 1261.42 301.557 1317.32 299.838C1371.9 298.16 1395.22 307.285 1600.3 314.166C1609.54 314.476 1618.67 314.608 1627.7 314.67C1825.24 316.033 1771.55 307.76 1807.02 315.872C1840.46 323.523 1917.37 329.278 1977.53 322.368C2041.05 315.074 2168.56 315.328 2191.16 312.247" stroke="#9499A8" stroke-miterlimit="10"/>
<path d="M-112.169 270.146C-112.169 270.146 -16.5159 300.164 88.1801 313.474C163.148 323.004 183.069 337.524 218.448 337.042C255.655 336.562 313.084 303.986 346.632 312.817C376.959 320.802 426.442 316.884 465.658 310.723C491.958 306.59 516.67 305.031 539.517 308.257C606.381 317.543 638.959 404.327 678.735 398.975C725.181 392.73 759.735 338.865 843.117 333.297C849.083 332.88 855.108 332.804 861.1 333.07C953.147 337.452 1081.02 357.951 1135.72 354.253C1193.47 350.347 1261.15 289.204 1316.89 287.197C1371.37 285.236 1393.52 291.342 1599.21 298.366C1608.43 298.68 1617.52 298.82 1626.49 298.902C1823.71 300.642 1769.21 293.688 1805.04 302.195C1839.1 310.285 1915.92 316.745 1975.35 310.267C2038 303.437 2166.36 304.393 2189.01 301.27" stroke="#9499A8" stroke-miterlimit="10"/>
<path d="M-109.164 255.033C-109.164 255.033 -13.688 285.823 90.536 299.32C166.312 309.132 185.413 323.994 220.436 323.499C257.207 323.004 314.812 289.457 348.085 298.692C377.72 306.916 427.334 303.093 467.116 297.098C493.399 293.137 518.199 291.617 541.061 294.797C608.054 303.969 640 391.548 679.068 386C724.49 379.548 759.173 327.034 841.568 320.723C847.45 320.253 853.399 320.117 859.328 320.316C949.97 323.679 1075.92 343.27 1131.28 339.695C1189.8 335.917 1256.64 277.181 1312.22 274.887C1366.61 272.644 1387.59 275.729 1593.89 282.893C1603.08 283.212 1612.13 283.365 1621.06 283.461C1817.96 285.579 1762.64 279.944 1798.84 288.851C1833.5 297.38 1910.25 304.543 1968.94 298.495C2030.71 292.131 2159.94 293.788 2182.63 290.625" stroke="#9499A8" stroke-miterlimit="10"/>
<path d="M-109.117 239.864C-109.117 239.864 -13.8171 271.427 89.9229 285.107C166.511 295.206 184.788 310.405 219.453 309.895C255.792 309.384 313.578 274.862 346.568 284.506C375.518 292.966 425.254 289.237 465.605 283.413C491.868 279.622 516.757 278.142 539.636 281.279C606.759 290.337 638.071 378.717 676.436 372.966C720.831 366.311 755.648 315.143 837.05 308.091C842.848 307.568 848.723 307.372 854.589 307.505C943.824 309.851 1067.85 328.53 1123.88 325.079C1183.15 321.428 1249.16 265.098 1304.6 262.52C1358.89 259.994 1378.69 260.058 1585.61 267.367C1594.77 267.692 1603.79 267.856 1612.66 267.968C1809.25 270.466 1753.09 266.147 1789.67 275.452C1824.94 284.423 1901.61 292.286 1959.56 286.67C2020.46 280.769 2150.54 283.129 2173.29 279.925" stroke="#9499A8" stroke-miterlimit="10"/>
<path d="M-110.746 224.248C-110.746 224.248 -15.627 256.589 87.643 270.451C165.037 280.841 182.495 296.371 216.801 295.848C252.701 295.324 310.68 259.82 343.385 269.876C371.654 278.568 421.507 274.935 462.426 269.285C488.671 265.662 513.653 264.225 536.542 267.317C603.798 276.261 634.474 365.443 672.132 359.49C715.498 352.632 750.448 302.808 830.859 295.015C836.574 294.44 842.374 294.184 848.177 294.251C936.005 295.581 1058.1 313.347 1114.81 310.02C1174.84 306.496 1240.01 252.573 1295.29 249.708C1349.49 246.9 1368.11 243.943 1575.64 251.395C1584.79 251.724 1593.77 251.9 1602.59 252.03C1798.86 254.908 1741.87 251.905 1778.83 261.606C1814.69 271.017 1891.3 279.581 1948.51 274.398C2008.53 268.961 2139.47 272.022 2162.27 268.777" stroke="#9499A8" stroke-miterlimit="10"/>
<path d="M-112.774 207.801C-112.774 207.801 -17.8379 240.92 84.9601 254.96C163.16 265.64 179.802 281.505 213.75 280.965C249.222 280.428 307.393 243.936 339.797 254.41C367.397 263.33 417.359 259.791 458.847 254.32C485.072 250.862 510.147 249.469 533.047 252.52C600.429 261.349 630.475 351.335 667.428 345.175C709.767 338.12 744.85 289.637 824.268 281.103C829.899 280.476 835.624 280.159 841.362 280.159C927.785 280.478 1047.96 297.329 1105.33 294.126C1166.12 290.73 1230.46 239.212 1285.59 236.063C1339.69 232.971 1357.14 226.993 1565.29 234.59C1574.41 234.922 1583.35 235.111 1592.12 235.256C1788.07 238.518 1730.24 236.829 1767.59 246.926C1804.05 256.781 1880.59 266.044 1937.07 261.291C1996.21 256.316 2128.01 260.081 2150.85 256.797" stroke="#9499A8" stroke-miterlimit="10"/>
<path d="M-113.919 190.131C-113.919 190.131 -19.1681 224.028 83.1609 238.248C162.161 249.223 177.989 265.416 211.58 264.865C246.619 264.313 304.994 226.827 337.097 237.725C364.025 246.866 414.091 243.423 456.151 238.136C482.359 234.843 507.518 233.496 530.439 236.501C597.953 245.217 627.363 336.007 663.608 329.642C704.921 322.387 740.139 275.248 818.562 265.97C824.111 265.291 829.762 264.915 835.437 264.847C920.45 264.16 1038.71 280.09 1096.74 277.009C1158.28 273.741 1221.79 224.629 1276.77 221.195C1330.77 217.821 1347.05 208.82 1555.81 216.562C1564.91 216.903 1573.81 217.099 1582.53 217.261C1778.15 220.906 1719.49 220.53 1757.23 231.024C1794.27 241.323 1870.75 251.282 1926.49 246.966C1984.76 242.452 2117.42 246.921 2140.31 243.596" stroke="#9499A8" stroke-miterlimit="10"/>
<path d="M-112.907 170.849C-112.907 170.849 -18.343 205.533 83.517 219.924C163.317 231.198 178.334 247.717 211.57 247.15C246.17 246.585 304.764 208.101 336.549 219.431C362.82 228.793 412.983 225.443 455.611 220.344C481.801 217.21 507.049 215.915 529.984 218.875C597.627 227.477 626.406 319.073 661.945 312.503C702.234 305.053 737.583 259.25 815.013 249.233C820.48 248.503 826.055 248.067 831.665 247.93C915.265 246.239 1031.6 261.246 1090.31 258.287C1152.61 255.147 1215.29 208.441 1270.11 204.719C1324.01 201.061 1339.12 189.038 1548.49 196.926C1557.56 197.266 1566.43 197.479 1575.1 197.658C1770.41 201.689 1710.89 202.624 1749.03 213.515C1786.65 224.26 1863.08 234.912 1918.08 231.03C1975.48 226.978 2108.99 232.151 2131.94 228.785" stroke="#9499A8" stroke-miterlimit="10"/>
<path d="M-108.457 149.568C-108.457 149.568 -14.082 185.039 87.314 199.6C167.914 211.176 182.114 228.016 214.994 227.437C249.166 226.857 307.979 187.369 339.442 199.134C365.06 208.713 415.314 205.455 458.509 200.549C484.68 197.575 510.019 196.329 532.967 199.246C600.74 207.735 628.887 300.138 663.717 293.356C702.983 285.711 738.463 241.246 814.902 230.486C820.286 229.706 825.786 229.211 831.331 229.006C913.531 226.314 1027.94 240.395 1087.31 237.559C1150.37 234.546 1212.22 190.245 1266.89 186.238C1320.7 182.296 1334.63 167.249 1544.61 175.285C1553.66 175.632 1562.49 175.853 1571.11 176.05C1766.1 180.468 1705.74 182.712 1744.27 194C1782.47 205.191 1858.85 216.537 1913.12 213.089C1969.64 209.498 2104.01 215.377 2127.01 211.971" stroke="#9499A8" stroke-miterlimit="10"/>
<path d="M-99.2911 125.896C-99.2911 125.896 -5.10613 162.155 95.8259 176.884C177.226 188.764 190.617 205.924 223.138 205.33C256.875 204.736 315.925 164.239 347.053 176.445C372.024 186.238 422.361 183.07 466.124 178.36C492.278 175.545 517.705 174.35 540.667 177.224C608.567 185.597 636.087 278.811 670.21 271.818C708.453 263.982 744.062 220.85 819.51 209.35C824.813 208.519 830.238 207.963 835.718 207.69C916.508 203.999 1029 217.214 1089.04 214.438C1152.87 211.622 1213.87 169.658 1268.39 165.367C1322.1 161.141 1334.86 143.071 1545.45 151.254C1554.48 151.604 1563.27 151.839 1571.83 152.049C1766.5 156.857 1705.29 160.408 1744.23 172.092C1783.01 183.729 1859.33 195.769 1912.86 192.754C1968.51 189.624 2103.74 196.207 2126.78 192.761" stroke="#9499A8" stroke-miterlimit="10"/>
<path d="M-85.007 100.82C-85.007 100.82 8.98589 137.869 109.458 152.768C191.65 164.956 204.234 182.431 236.399 181.823C269.699 181.216 328.999 139.705 359.778 152.355C384.117 162.358 434.523 159.282 478.857 154.772C504.997 152.113 530.508 150.973 553.485 153.801C621.519 162.062 648.407 256.086 681.819 248.881C719.041 240.853 754.78 199.056 829.231 186.813C834.453 185.932 839.802 185.317 845.216 184.975C924.601 180.294 1035.17 192.57 1095.87 189.919C1160.46 187.228 1220.63 147.671 1274.99 143.095C1328.61 138.585 1340.22 117.261 1551.41 125.821C1560.41 126.167 1569.16 126.424 1577.67 126.651C1772.02 131.85 1709.95 136.706 1749.29 148.788C1788.64 160.871 1864.93 173.601 1917.72 171.027C1972.5 168.355 2108.58 175.646 2131.67 172.158" stroke="#9499A8" stroke-miterlimit="10"/>
<path d="M-79.89 80.7534C-79.89 80.7534 13.91 118.597 113.921 133.66C196.906 146.157 208.687 163.946 240.492 163.324C273.362 162.702 332.921 120.172 363.339 133.275C387.048 143.487 437.524 140.496 482.423 136.193C508.547 133.689 534.146 132.605 557.137 135.39C625.303 143.535 651.563 238.373 684.259 230.953C720.464 222.737 756.328 182.271 829.788 169.287C834.93 168.356 840.205 167.681 845.553 167.268C923.532 161.599 1032.18 172.934 1093.54 170.41C1158.89 167.843 1218.22 130.692 1272.44 125.833C1325.96 121.037 1336.4 96.7015 1548.2 105.399C1557.18 105.749 1565.9 106.018 1574.35 106.261C1768.38 111.854 1705.45 118.012 1745.2 130.491C1785.13 143.025 1861.36 156.439 1913.42 154.303C1967.32 152.089 2104.27 160.088 2127.4 156.56" stroke="#9499A8" stroke-miterlimit="10"/>
<path d="M-84.267 58.3613C-84.267 58.3613 9.33305 97 108.886 112.225C192.662 125.038 203.639 143.136 235.086 142.501C267.524 141.863 327.355 98.3128 357.397 111.868C380.497 122.287 431.023 119.381 476.487 115.286C502.601 112.937 528.287 111.908 551.287 114.649C619.582 122.682 645.217 218.334 677.201 210.698C712.389 202.295 748.377 163.158 820.844 149.433C825.905 148.453 831.103 147.719 836.383 147.238C912.966 140.581 1019.68 150.971 1081.71 148.574C1147.81 146.132 1206.31 111.388 1260.38 106.245C1313.8 101.164 1323.07 73.8143 1535.48 82.6503C1544.44 83.0063 1553.12 83.2856 1561.53 83.5462C1755.23 89.533 1691.44 96.991 1731.61 109.87C1772.1 122.852 1848.3 136.956 1899.62 135.256C1952.64 133.499 2090.45 142.206 2113.63 138.638" stroke="#9499A8" stroke-miterlimit="10"/>
<path d="M-94.8871 35.4045C-94.8871 35.4045 -1.48708 74.8393 97.6129 90.2253C182.177 103.356 192.353 121.76 223.447 121.11C255.447 120.46 315.568 75.8818 345.225 89.8949C367.71 100.519 418.288 97.6934 464.32 93.8154C490.42 91.6169 516.187 90.6477 539.207 93.3447C607.633 101.263 632.645 197.733 663.913 189.877C698.085 181.293 734.193 143.481 805.669 129.014C810.651 127.984 815.775 127.189 820.988 126.638C896.172 119.001 1000.95 128.444 1063.65 126.17C1130.51 123.853 1188.18 91.5159 1242.09 86.0901C1295.42 80.7239 1303.51 50.3601 1516.53 59.3347C1525.47 59.6946 1534.1 59.9865 1542.46 60.2635C1735.85 66.6472 1671.19 75.4031 1711.78 88.6803C1752.83 102.111 1828.99 116.9 1879.58 115.64C1931.73 114.339 2070.39 123.756 2093.63 120.147" stroke="#9499A8" stroke-miterlimit="10"/>
<path d="M-108.481 -1.85669C-108.481 -1.85669 -15.2811 38.377 83.3649 53.9237C168.716 67.3729 178.096 86.0805 208.828 85.4173C240.399 84.753 300.819 39.1424 330.073 53.621C351.96 64.4505 402.573 61.7024 449.173 58.043C475.265 55.9938 501.11 55.0859 524.144 57.7386C592.7 65.5429 617.091 162.831 647.644 154.755C680.804 145.99 717.032 109.502 787.514 94.2924C792.42 93.2141 797.469 92.3597 802.614 91.7374C876.406 83.1229 979.246 91.6125 1042.61 89.4662C1110.23 87.2734 1167.07 57.3429 1220.83 51.6332C1274.05 45.9803 1280.97 12.6038 1494.61 21.718C1503.52 22.0819 1512.12 22.3869 1520.43 22.6787C1713.49 29.4615 1647.96 39.5131 1688.97 53.1889C1730.59 67.0697 1806.71 82.5437 1856.56 81.7221C1907.83 80.8778 2047.36 91.0038 2070.64 87.3557" stroke="#9499A8" stroke-miterlimit="10"/>
<path d="M-121.801 -18.9871C-121.801 -18.9871 -28.8009 22.0483 69.3931 37.7511C155.526 51.524 164.108 70.532 194.486 69.8535C225.625 69.1749 286.361 22.5338 315.197 37.4724C336.497 48.5057 387.146 45.8319 434.304 42.3968C460.388 40.4958 486.314 39.6487 509.36 42.2582C578.048 49.9478 601.82 148.058 631.647 139.759C663.8 130.813 700.147 95.6476 769.635 79.6978C774.461 78.5705 779.433 77.6563 784.507 76.9633C856.907 67.3756 957.807 74.9085 1021.85 72.8889C1090.22 70.8204 1146.23 43.2962 1199.84 37.3031C1252.96 31.3652 1258.71 -5.02565 1472.96 4.22877C1481.85 4.5984 1490.41 4.91409 1498.66 5.22126C1691.4 12.4055 1625 23.7517 1666.43 37.8266C1708.61 52.156 1784.71 68.3136 1833.82 67.9343C1884.22 67.5437 2024.59 78.3817 2047.93 74.691" stroke="#9499A8" stroke-miterlimit="10"/>
<path d="M-131.582 -31.8135C-131.582 -31.8135 -38.7891 10.0236 58.9579 25.8814C145.872 39.9825 153.658 59.2851 183.681 58.593C214.386 57.902 275.455 10.2252 303.859 25.6305C324.577 36.8687 375.254 34.2643 422.973 31.0563C449.047 29.3035 475.053 28.5183 498.115 31.0841C566.93 38.6602 590.091 137.594 619.191 129.069C650.339 119.946 686.791 86.1013 755.291 69.41C760.042 68.2343 764.94 67.2607 769.945 66.4972C840.961 55.9363 939.91 62.5125 1004.62 60.6172C1073.75 58.6748 1128.9 33.4972 1182.39 27.281C1235.39 20.9978 1239.99 -18.3483 1454.85 -8.95595C1463.72 -8.58064 1472.24 -8.25245 1480.45 -7.92994C1672.86 -0.342556 1605.59 12.2936 1647.45 26.7689C1690.18 41.5485 1766.25 58.388 1814.62 58.4516C1864.14 58.5152 2005.38 70.0647 2028.76 66.3348" stroke="#9499A8" stroke-miterlimit="10"/>
<path d="M-134.566 -38.7319C-134.566 -38.7319 -41.9861 3.90915 55.3159 19.9208C143.008 34.3518 150.009 53.9491 179.671 53.2433C209.942 52.537 271.357 3.82226 299.315 19.6983C319.463 31.1398 370.155 28.6007 418.435 25.6254C444.503 24.018 470.584 23.2975 493.662 25.8191C562.608 33.2815 585.156 133.041 613.529 124.289C643.675 114.991 680.24 82.4636 747.743 65.0312C752.418 63.8067 757.241 62.7735 762.176 61.9396C831.816 50.4135 928.811 56.0238 994.191 54.2557C1064.08 52.4388 1118.39 29.6704 1171.73 23.1663C1224.63 16.6027 1228.06 -25.7608 1443.54 -16.2298C1452.38 -15.8505 1460.86 -15.5099 1469.02 -15.172C1661.11 -7.18096 1592.97 6.74471 1635.25 21.6208C1678.54 36.849 1754.58 54.3699 1802.21 54.8752C1850.86 55.3919 1992.96 67.6545 2016.39 63.8843" stroke="#9499A8" stroke-miterlimit="10"/>
<path d="M-119.853 -50.1458C-119.853 -50.1458 -27.4791 -6.70012 69.3789 9.46546C157.845 24.228 164.058 44.1172 193.362 43.3972C223.2 42.6773 284.977 -7.07937 312.474 9.26903C332.06 20.9167 382.76 18.436 431.596 15.6975C457.664 14.2355 483.819 13.5808 506.909 16.0586C575.987 23.4064 597.93 123.996 625.571 115.012C654.718 105.541 691.384 74.3299 757.898 56.1538C762.498 54.882 767.245 53.7895 772.106 52.8838C840.376 40.3953 935.412 45.0393 1001.46 43.3955C1072.1 41.7023 1125.59 21.3488 1178.77 14.5552C1231.57 7.71158 1233.83 -37.6714 1449.92 -28.0019C1458.74 -27.6169 1467.19 -27.2638 1475.29 -26.9095C1667.06 -18.513 1598.05 -3.29961 1640.75 11.9774C1684.6 27.6552 1760.61 45.8574 1807.51 46.8062C1855.29 47.7715 1998.24 60.7512 2021.72 56.9407" stroke="#9499A8" stroke-miterlimit="10"/>
<path d="M-100.063 -65.5356C-100.063 -65.5356 -7.90311 -21.2826 88.5149 -4.96768C177.753 10.1356 183.18 30.308 212.129 29.5727C241.529 28.8392 303.69 -21.956 330.705 -5.1369C349.743 6.71743 400.442 4.28843 449.835 1.79015C475.901 0.472308 502.128 -0.116482 525.235 2.31764C594.44 9.55016 615.785 110.968 642.685 101.755C670.844 92.1126 707.607 62.2156 773.128 43.2991C777.654 41.9788 782.326 40.8269 787.115 39.8503C854.021 26.4011 947.086 30.0758 1013.81 28.557C1085.21 26.9899 1137.86 9.04541 1190.89 1.96505C1243.59 -5.15958 1244.67 -53.5604 1461.39 -43.7529C1470.18 -43.364 1478.59 -42.9983 1486.64 -42.6276C1678.08 -33.8206 1608.19 -17.3257 1651.33 -1.64896C1695.72 14.4803 1771.72 33.3593 1817.88 34.7538C1864.78 36.1733 2008.59 49.8644 2032.12 46.0142" stroke="#9499A8" stroke-miterlimit="10"/>
<path d="M-80.278 -80.9272C-80.278 -80.9272 11.6671 -35.8657 107.645 -19.4014C197.654 -3.95752 202.299 16.4977 230.889 15.7499C259.862 15.001 322.411 -36.8349 348.931 -19.5422C367.431 -7.48179 418.122 -9.85914 468.069 -12.1133C494.135 -13.2886 520.433 -13.8093 543.553 -11.4194C612.89 -4.29878 633.634 97.9513 659.791 88.5044C686.963 78.6907 723.822 50.1064 788.349 30.4495C792.803 29.0806 797.401 27.8687 802.118 26.8207C867.667 12.4136 958.757 15.1163 1026.14 13.7246C1098.3 12.2807 1150.12 -3.25234 1203 -10.6223C1255.61 -18.0268 1255.52 -69.4454 1472.84 -59.4983C1481.61 -59.105 1489.99 -58.7196 1497.98 -58.3422C1689.09 -49.1242 1618.32 -31.3472 1661.9 -15.269C1706.84 1.31045 1782.82 20.8668 1828.24 22.7076C1874.27 24.5739 2018.93 38.9839 2042.51 35.0934" stroke="#9499A8" stroke-miterlimit="10"/>
<path d="M-60.4931 -96.3188C-60.4931 -96.3188 31.2339 -50.4476 126.776 -33.8346C217.553 -18.05 221.419 2.68738 249.65 1.92598C278.189 1.16343 341.15 -51.7155 367.161 -33.9493C385.126 -21.6771 435.806 -24.013 486.302 -26.0173C512.37 -27.0518 538.739 -27.5043 561.871 -25.1577C631.339 -18.1522 651.497 84.933 676.903 75.2493C703.092 65.2687 740.041 37.9949 803.576 17.5959C807.957 16.1796 812.479 14.9083 817.119 13.7883C881.324 -1.57444 970.426 0.153922 1038.48 -1.11339C1111.4 -2.43123 1162.38 -15.5523 1215.11 -23.2101C1267.62 -30.8969 1266.36 -85.3344 1484.29 -75.2481C1493.04 -74.8495 1501.38 -74.4521 1509.32 -74.0558C1700.08 -64.2381 1628.46 -45.3704 1672.47 -28.8903C1717.96 -11.8611 1793.92 8.37212 1838.6 10.6626C1883.76 12.9763 2029.28 28.1046 2052.91 24.1726" stroke="#9499A8" stroke-miterlimit="10"/>
<path d="M-40.7059 -111.711C-40.7059 -111.711 50.8019 -65.0292 145.907 -48.2686C237.447 -32.1377 240.537 -11.1237 268.414 -11.8988C296.514 -12.6755 359.901 -66.5952 385.389 -48.3572C402.835 -35.8732 453.489 -38.1739 504.536 -39.9244C530.609 -40.8186 557.044 -41.1996 580.191 -38.8984C649.791 -32.0065 669.361 71.9145 694.012 61.9947C719.23 51.846 756.258 25.8832 818.8 4.74092C823.111 3.27687 827.558 1.94629 832.122 0.75502C894.989 -15.5616 982.097 -14.8098 1050.82 -15.9505C1124.5 -17.1429 1174.65 -27.8542 1227.22 -35.7999C1279.63 -43.7666 1277.2 -101.224 1495.74 -90.9971C1504.47 -90.5929 1512.77 -90.1854 1520.66 -89.7747C1711.09 -79.5845 1638.59 -59.3979 1683.04 -42.5146C1729.08 -25.0352 1805.03 -4.128 1848.96 -1.38955C1893.26 1.37105 2039.62 17.2181 2063.3 13.2458" stroke="#9499A8" stroke-miterlimit="10"/>
<path d="M-20.92 -127.105C-20.92 -127.105 70.365 -79.6095 165.038 -62.7047C257.338 -46.2223 259.655 -24.9352 287.175 -25.7256C314.846 -26.516 378.675 -81.4753 403.615 -62.7654C420.548 -50.0651 471.177 -52.3385 522.77 -53.8312C548.849 -54.5858 575.347 -54.8959 598.508 -52.6389C668.237 -45.8606 687.236 58.8985 711.122 48.739C735.371 38.4245 772.475 13.7693 834.022 -8.11276C838.251 -9.61513 842.612 -11.0119 847.122 -12.2786C908.662 -29.5474 993.768 -29.7734 1063.16 -30.7886C1137.59 -31.8572 1186.91 -40.1571 1239.33 -48.3901C1291.65 -56.6378 1288.03 -117.113 1507.2 -106.747C1515.9 -106.339 1524.17 -105.921 1532 -105.493C1722.11 -94.9319 1648.72 -73.4234 1693.61 -56.1393C1740.18 -38.2102 1816.14 -16.6699 1859.32 -13.4414C1902.76 -10.2766 2049.96 6.33185 2073.69 2.31984" stroke="#9499A8" stroke-miterlimit="10"/>
<path d="M-1.13702 -142.495C-1.13702 -142.495 89.8749 -94.0983 184.17 -77.1378C277.179 -60.2137 278.775 -38.7444 305.937 -39.5501C333.174 -40.3546 397.453 -96.3536 421.846 -77.1725C438.273 -64.2553 488.868 -66.506 541.003 -67.7369C567.095 -68.353 593.654 -68.5926 616.83 -66.3788C686.688 -59.7152 705.119 45.8842 728.23 35.4829C751.518 25.0037 788.688 1.65504 849.247 -20.9691C853.404 -22.5211 857.697 -23.9688 862.125 -25.3122C922.349 -43.5337 1005.44 -44.7369 1075.5 -45.6255C1150.69 -46.5697 1199.18 -52.4582 1251.45 -60.9796C1303.66 -69.5084 1298.88 -133.002 1518.65 -122.498C1527.33 -122.085 1535.56 -121.656 1543.35 -121.21C1733.13 -110.275 1658.85 -87.4512 1704.19 -69.7628C1751.3 -51.3823 1827.25 -29.151 1869.69 -25.4888C1912.26 -21.86 2060.31 -4.5492 2084.09 -8.6021" stroke="#9499A8" stroke-miterlimit="10"/>
<path d="M18.646 -157.888C18.646 -157.888 109.484 -108.766 203.297 -91.57C297.11 -74.3744 297.89 -52.5531 324.697 -53.3713C351.504 -54.1895 416.245 -111.226 440.071 -91.5757C463.897 -71.9256 565.159 -86.6688 635.146 -80.1176C705.133 -73.5664 723.005 32.8727 745.346 22.2278C767.687 11.5829 804.909 -10.4559 864.475 -33.8211C924.041 -57.1863 1011.9 -59.642 1087.84 -60.4618C1163.79 -61.2817 1211.44 -64.7583 1263.56 -73.5676C1315.68 -82.3769 1309.72 -148.889 1530.11 -138.246C1750.5 -127.604 1667.11 -102.216 1714.77 -83.3853C1762.42 -64.5545 1838.37 -41.6311 1880.06 -37.5373C1921.75 -33.4435 2070.67 -15.4321 2094.49 -19.5264" stroke="#9499A8" stroke-miterlimit="10"/>
</g>
</g>
<defs>
<linearGradient id="paint0_linear_6_28" x1="960" y1="0" x2="960" y2="825" gradientUnits="userSpaceOnUse">
<stop stop-color="#181627"/>
<stop offset="1" stop-color="#013A51"/>
</linearGradient>
<clipPath id="clip0_6_28">
<rect width="1920" height="825" fill="white"/>
</clipPath>
</defs>
</svg>
