<svg width="1920" height="250" viewBox="0 0 1920 250" fill="none" xmlns="http://www.w3.org/2000/svg">
<g clip-path="url(#clip0_4_87)">
<path d="M0 33L22.8 34C45.7 35 91.3 37 137 41.7C182.7 46.3 228.3 53.7 274 67.2C319.7 80.7 365.3 100.3 411.2 104C457 107.7 503 95.3 548.8 94.2C594.7 93 640.3 103 686 111.7C731.7 120.3 777.3 127.7 823 121.7C868.7 115.7 914.3 96.3 960 96C1005.7 95.7 1051.3 114.3 1097 117.3C1142.7 120.3 1188.3 107.7 1234 102C1279.7 96.3 1325.3 97.7 1371.2 100.5C1417 103.3 1463 107.7 1508.8 101.5C1554.7 95.3 1600.3 78.7 1646 71.5C1691.7 64.3 1737.3 66.7 1783 63.5C1828.7 60.3 1874.3 51.7 1897.2 47.3L1920 43V251H1897.2C1874.3 251 1828.7 251 1783 251C1737.3 251 1691.7 251 1646 251C1600.3 251 1554.7 251 1508.8 251C1463 251 1417 251 1371.2 251C1325.3 251 1279.7 251 1234 251C1188.3 251 1142.7 251 1097 251C1051.3 251 1005.7 251 960 251C914.3 251 868.7 251 823 251C777.3 251 731.7 251 686 251C640.3 251 594.7 251 548.8 251C503 251 457 251 411.2 251C365.3 251 319.7 251 274 251C228.3 251 182.7 251 137 251C91.3 251 45.7 251 22.8 251H0V33Z" fill="#8E1753" fill-opacity="0.5"/>
<path d="M0 121L22.8 120.2C45.7 119.3 91.3 117.7 137 111.5C182.7 105.3 228.3 94.7 274 87.8C319.7 81 365.3 78 411.2 77.7C457 77.3 503 79.7 548.8 77.7C594.7 75.7 640.3 69.3 686 67.2C731.7 65 777.3 67 823 67.7C868.7 68.3 914.3 67.7 960 75.2C1005.7 82.7 1051.3 98.3 1097 108.3C1142.7 118.3 1188.3 122.7 1234 118.7C1279.7 114.7 1325.3 102.3 1371.2 100.5C1417 98.7 1463 107.3 1508.8 112.5C1554.7 117.7 1600.3 119.3 1646 126.5C1691.7 133.7 1737.3 146.3 1783 153.5C1828.7 160.7 1874.3 162.3 1897.2 163.2L1920 164V251H1897.2C1874.3 251 1828.7 251 1783 251C1737.3 251 1691.7 251 1646 251C1600.3 251 1554.7 251 1508.8 251C1463 251 1417 251 1371.2 251C1325.3 251 1279.7 251 1234 251C1188.3 251 1142.7 251 1097 251C1051.3 251 1005.7 251 960 251C914.3 251 868.7 251 823 251C777.3 251 731.7 251 686 251C640.3 251 594.7 251 548.8 251C503 251 457 251 411.2 251C365.3 251 319.7 251 274 251C228.3 251 182.7 251 137 251C91.3 251 45.7 251 22.8 251H0V121Z" fill="#6B1E53" fill-opacity="0.75"/>
<path d="M0 182L22.8 179.7C45.7 177.3 91.3 172.7 137 160.5C182.7 148.3 228.3 128.7 274 122C319.7 115.3 365.3 121.7 411.2 134.3C457 147 503 166 548.8 165.8C594.7 165.7 640.3 146.3 686 135C731.7 123.7 777.3 120.3 823 116.5C868.7 112.7 914.3 108.3 960 113.5C1005.7 118.7 1051.3 133.3 1097 145.8C1142.7 158.3 1188.3 168.7 1234 167.8C1279.7 167 1325.3 155 1371.2 143.7C1417 132.3 1463 121.7 1508.8 117C1554.7 112.3 1600.3 113.7 1646 115.3C1691.7 117 1737.3 119 1783 117C1828.7 115 1874.3 109 1897.2 106L1920 103V251H1897.2C1874.3 251 1828.7 251 1783 251C1737.3 251 1691.7 251 1646 251C1600.3 251 1554.7 251 1508.8 251C1463 251 1417 251 1371.2 251C1325.3 251 1279.7 251 1234 251C1188.3 251 1142.7 251 1097 251C1051.3 251 1005.7 251 960 251C914.3 251 868.7 251 823 251C777.3 251 731.7 251 686 251C640.3 251 594.7 251 548.8 251C503 251 457 251 411.2 251C365.3 251 319.7 251 274 251C228.3 251 182.7 251 137 251C91.3 251 45.7 251 22.8 251H0V182Z" fill="#4A204B" fill-opacity="0.8"/>
<path d="M0 166L22.8 165.2C45.7 164.3 91.3 162.7 137 168.3C182.7 174 228.3 187 274 191C319.7 195 365.3 190 411.2 187.2C457 184.3 503 183.7 548.8 188C594.7 192.3 640.3 201.7 686 194.8C731.7 188 777.3 165 823 157.3C868.7 149.7 914.3 157.3 960 158.5C1005.7 159.7 1051.3 154.3 1097 154.5C1142.7 154.7 1188.3 160.3 1234 159.7C1279.7 159 1325.3 152 1371.2 154.2C1417 156.3 1463 167.7 1508.8 175.2C1554.7 182.7 1600.3 186.3 1646 183.8C1691.7 181.3 1737.3 172.7 1783 164.5C1828.7 156.3 1874.3 148.7 1897.2 144.8L1920 141V251H1897.2C1874.3 251 1828.7 251 1783 251C1737.3 251 1691.7 251 1646 251C1600.3 251 1554.7 251 1508.8 251C1463 251 1417 251 1371.2 251C1325.3 251 1279.7 251 1234 251C1188.3 251 1142.7 251 1097 251C1051.3 251 1005.7 251 960 251C914.3 251 868.7 251 823 251C777.3 251 731.7 251 686 251C640.3 251 594.7 251 548.8 251C503 251 457 251 411.2 251C365.3 251 319.7 251 274 251C228.3 251 182.7 251 137 251C91.3 251 45.7 251 22.8 251H0V166Z" fill="#2D1D3B" fill-opacity="0.8"/>
<path d="M0 220L22.8 220.5C45.7 221 91.3 222 137 220.3C182.7 218.7 228.3 214.3 274 207C319.7 199.7 365.3 189.3 411.2 185.8C457 182.3 503 185.7 548.8 190.7C594.7 195.7 640.3 202.3 686 209.2C731.7 216 777.3 223 823 221.8C868.7 220.7 914.3 211.3 960 206.7C1005.7 202 1051.3 202 1097 202.8C1142.7 203.7 1188.3 205.3 1234 201.8C1279.7 198.3 1325.3 189.7 1371.2 192.5C1417 195.3 1463 209.7 1508.8 214.8C1554.7 220 1600.3 216 1646 217.5C1691.7 219 1737.3 226 1783 224.8C1828.7 223.7 1874.3 214.3 1897.2 209.7L1920 205V251H1897.2C1874.3 251 1828.7 251 1783 251C1737.3 251 1691.7 251 1646 251C1600.3 251 1554.7 251 1508.8 251C1463 251 1417 251 1371.2 251C1325.3 251 1279.7 251 1234 251C1188.3 251 1142.7 251 1097 251C1051.3 251 1005.7 251 960 251C914.3 251 868.7 251 823 251C777.3 251 731.7 251 686 251C640.3 251 594.7 251 548.8 251C503 251 457 251 411.2 251C365.3 251 319.7 251 274 251C228.3 251 182.7 251 137 251C91.3 251 45.7 251 22.8 251H0V220Z" fill="#181627"/>
</g>
<defs>
<clipPath id="clip0_4_87">
<rect width="1920" height="250" fill="white"/>
</clipPath>
</defs>
</svg>
