<svg width="23" height="31" viewBox="0 0 23 31" fill="none" xmlns="http://www.w3.org/2000/svg">
<path d="M19.4848 17.3212C18.4805 19.3789 17.1197 21.4288 15.7282 23.2694C14.4082 25.0046 12.9967 26.6668 11.5 28.2487C10.0032 26.6669 8.59181 25.0047 7.27183 23.2694C5.88033 21.4288 4.5195 19.3789 3.51517 17.3212C2.49933 15.2423 1.91667 13.2951 1.91667 11.625C1.91667 9.05571 2.92634 6.59166 4.72356 4.7749C6.52078 2.95814 8.95834 1.9375 11.5 1.9375C14.0417 1.9375 16.4792 2.95814 18.2764 4.7749C20.0737 6.59166 21.0833 9.05571 21.0833 11.625C21.0833 13.2951 20.4988 15.2423 19.4848 17.3212ZM11.5 31C11.5 31 23 19.9834 23 11.625C23 8.54186 21.7884 5.58499 19.6317 3.40488C17.4751 1.22477 14.55 0 11.5 0C8.45001 0 5.52494 1.22477 3.36827 3.40488C1.2116 5.58499 4.54484e-08 8.54186 0 11.625C0 19.9834 11.5 31 11.5 31Z" fill="white"/>
<path d="M11.5 15.5C10.4833 15.5 9.50831 15.0917 8.78942 14.365C8.07053 13.6383 7.66667 12.6527 7.66667 11.625C7.66667 10.5973 8.07053 9.61166 8.78942 8.88496C9.50831 8.15826 10.4833 7.75 11.5 7.75C12.5167 7.75 13.4917 8.15826 14.2106 8.88496C14.9295 9.61166 15.3333 10.5973 15.3333 11.625C15.3333 12.6527 14.9295 13.6383 14.2106 14.365C13.4917 15.0917 12.5167 15.5 11.5 15.5ZM11.5 17.4375C13.025 17.4375 14.4875 16.8251 15.5659 15.7351C16.6442 14.645 17.25 13.1666 17.25 11.625C17.25 10.0834 16.6442 8.605 15.5659 7.51494C14.4875 6.42489 13.025 5.8125 11.5 5.8125C9.97501 5.8125 8.51247 6.42489 7.43414 7.51494C6.3558 8.605 5.75 10.0834 5.75 11.625C5.75 13.1666 6.3558 14.645 7.43414 15.7351C8.51247 16.8251 9.97501 17.4375 11.5 17.4375Z" fill="white"/>
</svg>
