<svg width="25" height="25" viewBox="0 0 25 25" fill="none" xmlns="http://www.w3.org/2000/svg">
<path d="M21.3476 3.63444C20.1963 2.47769 18.8252 1.56061 17.3143 0.936644C15.8034 0.312679 14.1828 -0.00569416 12.5471 7.70787e-05C5.6928 7.70787e-05 0.10673 5.55943 0.100452 12.3844C0.100452 14.5703 0.674912 16.6969 1.75948 18.5797L0 25L6.59844 23.2781C8.42385 24.2671 10.4689 24.7854 12.5471 24.7859H12.5534C19.4092 24.7859 24.9937 19.2266 25 12.3954C25.0016 10.7673 24.6795 9.15503 24.0524 7.65143C23.4253 6.14782 22.5055 4.78261 21.3461 3.63444H21.3476ZM12.5471 22.6891C10.6934 22.6897 8.87384 22.1931 7.27963 21.2516L6.90294 21.0266L2.98845 22.0484L4.03378 18.2469L3.78892 17.8547C2.75271 16.2146 2.20468 14.3157 2.20837 12.3782C2.20837 6.71256 6.84957 2.0907 12.5534 2.0907C13.9122 2.08827 15.2581 2.35362 16.5134 2.87146C17.7687 3.3893 18.9087 4.14938 19.8675 5.10787C20.8297 6.06263 21.5925 7.19759 22.1119 8.44729C22.6313 9.69698 22.897 11.0367 22.8936 12.3891C22.8874 18.075 18.2462 22.6891 12.5471 22.6891ZM18.2211 14.9797C17.9118 14.825 16.3847 14.0766 16.0974 13.9703C15.8118 13.8688 15.603 13.8157 15.399 14.125C15.1902 14.4328 14.5938 15.1344 14.4149 15.336C14.2359 15.5438 14.0507 15.5672 13.74 15.4141C13.4307 15.2578 12.4278 14.9328 11.2412 13.875C10.3152 13.0547 9.69519 12.0391 9.50998 11.7313C9.33105 11.4219 9.49271 11.2563 9.6481 11.1016C9.78465 10.9641 9.9573 10.7391 10.1127 10.561C10.2696 10.3829 10.3214 10.2516 10.4235 10.0454C10.5255 9.83598 10.4768 9.65786 10.3999 9.50317C10.3214 9.34848 9.70147 7.82193 9.43935 7.2063C9.18822 6.59849 8.93238 6.68287 8.74089 6.67506C8.56196 6.66412 8.35321 6.66412 8.14446 6.66412C7.98682 6.66802 7.83169 6.70432 7.68881 6.77073C7.54592 6.83714 7.41837 6.93224 7.31416 7.05006C7.0285 7.35943 6.22959 8.10786 6.22959 9.63442C6.22959 11.161 7.34398 12.6282 7.50094 12.836C7.65476 13.0438 9.68891 16.1672 12.8108 17.511C13.5485 17.8313 14.1292 18.0203 14.5828 18.1641C15.3283 18.4016 16.0017 18.3656 16.5385 18.2891C17.1349 18.1985 18.3764 17.5391 18.6386 16.8157C18.896 16.0907 18.896 15.4719 18.8175 15.3422C18.7406 15.211 18.5318 15.1344 18.2211 14.9797Z" fill="white"/>
</svg>
