<svg width="30" height="22" viewBox="0 0 30 22" fill="none" xmlns="http://www.w3.org/2000/svg">
<path d="M0 3.66667C0 2.69421 0.395088 1.76157 1.09835 1.07394C1.80161 0.386308 2.75544 0 3.75 0H26.25C27.2446 0 28.1984 0.386308 28.9016 1.07394C29.6049 1.76157 30 2.69421 30 3.66667V18.3333C30 19.3058 29.6049 20.2384 28.9016 20.9261C28.1984 21.6137 27.2446 22 26.25 22H3.75C2.75544 22 1.80161 21.6137 1.09835 20.9261C0.395088 20.2384 0 19.3058 0 18.3333V3.66667ZM3.75 1.83333C3.25272 1.83333 2.77581 2.02649 2.42417 2.3703C2.07254 2.71412 1.875 3.18044 1.875 3.66667V4.0645L15 11.7645L28.125 4.0645V3.66667C28.125 3.18044 27.9275 2.71412 27.5758 2.3703C27.2242 2.02649 26.7473 1.83333 26.25 1.83333H3.75ZM28.125 6.20217L19.2975 11.3813L28.125 16.6925V6.20217ZM28.0612 18.8082L17.4862 12.4447L15 13.9022L12.5138 12.4447L1.93875 18.8063C2.0453 19.1965 2.28059 19.5413 2.60811 19.7873C2.93562 20.0332 3.33702 20.1666 3.75 20.1667H26.25C26.6627 20.1667 27.0639 20.0336 27.3914 19.788C27.7189 19.5424 27.9544 19.198 28.0612 18.8082ZM1.875 16.6925L10.7025 11.3813L1.875 6.20217V16.6925Z" fill="white"/>
</svg>
