<svg width="25" height="25" viewBox="0 0 25 25" fill="none" xmlns="http://www.w3.org/2000/svg">
<path d="M18.1008 0H6.89895C3.09487 0 0 3.09502 0 6.8991V18.1009C0 21.9051 3.09487 25 6.89895 25H18.1008C21.9051 25 25 21.905 25 18.1009V6.8991C25.0001 3.09502 21.9051 0 18.1008 0ZM22.782 18.1009C22.782 20.6821 20.6821 22.7819 18.1009 22.7819H6.89895C4.31794 22.782 2.21812 20.6821 2.21812 18.1009V6.8991C2.21812 4.31809 4.31794 2.21812 6.89895 2.21812H18.1008C20.6819 2.21812 22.7819 4.31809 22.7819 6.8991V18.1009H22.782Z" fill="white"/>
<path d="M12.5 6.05843C8.9479 6.05843 6.05813 8.9482 6.05813 12.5003C6.05813 16.0522 8.9479 18.9419 12.5 18.9419C16.0521 18.9419 18.9419 16.0522 18.9419 12.5003C18.9419 8.9482 16.0521 6.05843 12.5 6.05843ZM12.5 16.7236C10.1711 16.7236 8.27625 14.829 8.27625 12.5001C8.27625 10.1711 10.171 8.2764 12.5 8.2764C14.829 8.2764 16.7237 10.1711 16.7237 12.5001C16.7237 14.829 14.8289 16.7236 12.5 16.7236Z" fill="white"/>
<path d="M19.212 4.17761C18.7847 4.17761 18.3649 4.35062 18.063 4.65377C17.7598 4.95543 17.5854 5.37539 17.5854 5.80423C17.5854 6.23174 17.7599 6.65155 18.063 6.9547C18.3647 7.25636 18.7847 7.43085 19.212 7.43085C19.6409 7.43085 20.0594 7.25636 20.3625 6.9547C20.6656 6.65155 20.8387 6.23159 20.8387 5.80423C20.8387 5.37539 20.6656 4.95543 20.3625 4.65377C20.0608 4.35062 19.6409 4.17761 19.212 4.17761Z" fill="white"/>
</svg>
