<svg width="450" height="70" viewBox="0 0 450 70" fill="none" xmlns="http://www.w3.org/2000/svg">
<path d="M0 7.00009L10.7 5.70009C21.3 4.30009 42.7 1.70009 64.2 5.30009C85.7 9.00009 107.3 19.0001 128.8 19.0001C150.3 19.0001 171.7 9.00009 193 4.30009C214.3 -0.299914 235.7 0.300086 257 3.00009C278.3 5.70009 299.7 10.3001 321.2 15.7001C342.7 21.0001 364.3 27.0001 385.8 28.3001C407.3 29.7001 428.7 26.3001 439.3 24.7001L450 23.0001V70.0001H439.3C428.7 70.0001 407.3 70.0001 385.8 70.0001C364.3 70.0001 342.7 70.0001 321.2 70.0001C299.7 70.0001 278.3 70.0001 257 70.0001C235.7 70.0001 214.3 70.0001 193 70.0001C171.7 70.0001 150.3 70.0001 128.8 70.0001C107.3 70.0001 85.7 70.0001 64.2 70.0001C42.7 70.0001 21.3 70.0001 10.7 70.0001H0V7.00009Z" fill="#262626"/>
</svg>
