<?xml version="1.0" encoding="utf-8"?>
<!-- Svg Vector Icons : http://www.onlinewebfonts.com/icon -->
<!DOCTYPE svg PUBLIC "-//W3C//DTD SVG 1.1//EN" "http://www.w3.org/Graphics/SVG/1.1/DTD/svg11.dtd">
<svg version="1.1" xmlns="http://www.w3.org/2000/svg" xmlns:xlink="http://www.w3.org/1999/xlink" x="0px" y="0px" viewBox="0 0 1000 1000" enable-background="new 0 0 1000 1000" xml:space="preserve" fill="#fff">
<metadata> Svg Vector Icons : http://www.onlinewebfonts.com/icon </metadata>
<g><g><polygon points="120.6,186.4 10,333.9 10,556.5 120.6,502.5 "/><path d="M857,403.7L136.5,186.4v312.2l293.3,33.8l282-57.4c0.5-0.1,1,0,1.5,0c0.5,0,1-0.2,1.5-0.1l147.9,27.4L857,403.7z M278.7,282.5L421,322v17.4l-142.3-36.1V282.5z M421,409l-142.3-24.4v-64.9L421,355.8V409z"/><polygon points="395.3,537.4 130.5,509.7 21.9,559.1 222.7,572.9 "/><path d="M721.3,492.2V566v247.7l210.5-25.3h10.8V787l47.4-5.7V542l-126.3-23.4L721.3,492.2z M752.9,569.6v-1.9l89.6,12.3l5.3,0.7V784l-94.8,11.6V569.6z M974.2,768.6l-31.6,3.9V593.6l31.6,4.3V768.6z M926.8,774.3l-63.2,7.7V582.8l63.2,8.7V774.3z"/><polygon points="183.9,598.5 183.9,749.7 341.9,769.1 341.9,639.5 421,630.2 421,778.8 705.5,813.6 705.5,564.1 705.5,492.4 480.4,538.2 "/><path d="M168.1,592L168.1,592L168.1,592z"/></g><g></g><g></g><g></g><g></g><g></g><g></g><g></g><g></g><g></g><g></g><g></g><g></g><g></g><g></g><g></g></g>
</svg>