<svg width="40" height="40" viewBox="0 0 40 40" fill="none" xmlns="http://www.w3.org/2000/svg">
<path d="M37.8667 0H2.13333C0.955126 0 0 1.23508 0 2.75862C0 4.28217 0.955126 5.51724 2.13333 5.51724H37.8667C39.0449 5.51724 40 4.28217 40 2.75862C40 1.23508 39.0449 0 37.8667 0Z" fill="white"/>
<path d="M37.8667 17.2414H2.13333C0.955126 17.2414 0 18.4765 0 20C0 21.5235 0.955126 22.7586 2.13333 22.7586H37.8667C39.0449 22.7586 40 21.5235 40 20C40 18.4765 39.0449 17.2414 37.8667 17.2414Z" fill="white"/>
<path d="M37.8667 34.4828H2.13333C0.955126 34.4828 0 35.7178 0 37.2414C0 38.7649 0.955126 40 2.13333 40H37.8667C39.0449 40 40 38.7649 40 37.2414C40 35.7178 39.0449 34.4828 37.8667 34.4828Z" fill="white"/>
</svg>
