<svg width="40" height="40" viewBox="0 0 40 40" fill="none" xmlns="http://www.w3.org/2000/svg">
<path d="M39.5712 30.3358C38.0822 27.5205 32.9115 24.468 32.6838 24.3345C32.0194 23.9562 31.3261 23.756 30.6773 23.756C29.7125 23.756 28.9228 24.198 28.4445 25.0019C27.6882 25.9067 26.7501 26.9643 26.5225 27.1282C24.7606 28.3237 23.3814 28.188 21.8553 26.6617L13.3381 18.1426C11.8217 16.6259 11.6823 15.2294 12.8695 13.477C13.0356 13.2478 14.093 12.3089 14.9977 11.5517C15.5746 11.2083 15.9706 10.6981 16.1441 10.0721C16.3747 9.23927 16.2049 8.25957 15.6606 7.30509C15.5323 7.08557 12.4787 1.91341 9.66536 0.424956C9.14036 0.146843 8.54862 0 7.9554 0C6.97806 0 6.05857 0.3812 5.36747 1.07166L3.48547 2.95318C0.508981 5.92936 -0.568458 9.30305 0.281332 12.9801C0.990232 16.0445 3.05613 19.3055 6.42266 22.6717L17.3268 33.5775C21.5876 37.8389 25.6497 40 29.4004 40H29.4011C32.1596 40 34.7312 38.8275 37.0425 36.5158L38.9238 34.6343C40.0672 33.4914 40.3268 31.7634 39.5712 30.3358Z" fill="white"/>
</svg>
